<?xml version="1.0" standalone="no"?>
<!DOCTYPE svg PUBLIC "-//W3C//DTD SVG 20010904//EN"
 "http://www.w3.org/TR/2001/REC-SVG-20010904/DTD/svg10.dtd">
<svg version="1.0" xmlns="http://www.w3.org/2000/svg"
 width="575.000000pt" height="575.000000pt" viewBox="0 0 575.000000 575.000000"
 preserveAspectRatio="xMidYMid meet">
<metadata>
Created by potrace 1.14, written by Peter Selinger 2001-2017
</metadata>
<g transform="translate(0.000000,575.000000) scale(0.100000,-0.100000)"
fill="#000000" stroke="none">
<path d="M2150 5295 l0 -185 -365 0 -365 0 0 -180 0 -180 -185 0 -185 0 0
-185 0 -185 -185 0 -185 0 0 -555 0 -555 -185 0 -185 0 0 -1470 0 -1470 185 0
185 0 0 185 0 185 185 0 185 0 0 185 0 185 185 0 185 0 0 -185 0 -185 185 0
185 0 0 -185 0 -185 365 0 365 0 0 370 0 370 370 0 370 0 0 -370 0 -370 365 0
365 0 0 185 0 185 185 0 185 0 0 185 0 185 185 0 185 0 0 -185 0 -185 185 0
185 0 0 -185 0 -185 185 0 185 0 0 1655 0 1655 -185 0 -185 0 0 370 0 370
-185 0 -185 0 0 185 0 185 -185 0 -185 0 0 180 0 180 -365 0 -365 0 0 185 0
185 -740 0 -740 0 0 -185z m740 -1470 l0 -185 185 0 185 0 0 -185 0 -185 -370
0 -370 0 0 -365 0 -365 185 0 185 0 0 -185 0 -185 -370 0 -370 0 0 185 0 185
-180 0 -180 0 0 550 0 550 180 0 180 0 0 185 0 185 370 0 370 0 0 -185z m1840
0 l0 -185 185 0 185 0 0 -185 0 -185 -370 0 -370 0 0 -365 0 -365 185 0 185 0
0 -185 0 -185 -370 0 -370 0 0 185 0 185 -180 0 -180 0 0 550 0 550 180 0 180
0 0 185 0 185 370 0 370 0 0 -185z"/>
</g>
</svg>
